<svg version="1.1" id="Layer_1" xmlns="http://www.w3.org/2000/svg" xmlns:xlink="http://www.w3.org/1999/xlink" x="0" y="0" viewBox="0 0 48 48" xml:space="preserve"><path fill="#FF8F26" d="M13.6 7.2h20.8V44H13.6z"/><path fill="#FFF" d="M10.4 36h27.2v3.2H10.4zM10.4 12h27.2v3.2H10.4zM10.4 4h27.2v3.2H10.4zM10.4 28h27.2v3.2H10.4zM10.4 20h27.2v3.2H10.4z"/><path fill="#FFF" d="M10.4 4h3.2v43.2h-3.2zM34.4 4h3.2v43.2h-3.2zM26.4 4h3.2v43.2h-3.2z"/><defs><path id="SVGID_1_" d="M0 0h48v48H0z"/></defs><clipPath id="SVGID_2_"><use xlink:href="#SVGID_1_" overflow="visible"/></clipPath><path clip-path="url(#SVGID_2_)" fill="#FFF" d="M18.4 4h3.2v43.2h-3.2z"/><path clip-path="url(#SVGID_2_)" fill="#7EB457" d="M0 46.4h48V48H0z"/><path fill="#FFF" d="M13.6.8h20.8V4H13.6zM6.3 35.1c.3-.9 0-1.9-.7-2.5-.7-.6-1.7-.8-2.6-.4-.9.4-1.4 1.2-1.4 2.2 0 .2 0 .5.1.7.3.7.1 1.6-.3 2.2-.8 1.1-.8 2.6 0 3.8.8 1.1 2.3 1.6 3.6 1.1 1.3-.4 2.2-1.7 2.2-3 0-.7-.2-1.3-.6-1.9-.5-.6-.6-1.4-.3-2.2zm0 0"/><path fill="#803F37" d="M3.2 37.6h1.6v9.6H3.2z"/><path fill="#FFF" d="M46.3 35.1c.3-.9 0-1.9-.7-2.5-.7-.6-1.7-.8-2.6-.4-.9.4-1.4 1.2-1.4 2.2 0 .2 0 .5.1.7.3.7.1 1.6-.3 2.2-1 1.3-.7 3.2.5 4.2 1.2 1.1 3.1 1.1 4.3 0 1.2-1.1 1.4-2.9.5-4.2-.6-.6-.7-1.4-.4-2.2zm0 0"/><path fill="#803F37" d="M43.2 37.6h1.6v9.6h-1.6z"/><path fill="#FFF" d="M8 44h32v4H8z"/><path fill="#E2771E" d="M13.6 7.2h4.8v1.6h-4.8zM21.6 7.2h4.8v1.6h-4.8zM29.6 7.2h4.8v1.6h-4.8zM13.6 15.2h4.8v1.6h-4.8zM21.6 15.2h4.8v1.6h-4.8zM29.6 15.2h4.8v1.6h-4.8zM13.6 23.2h4.8v1.6h-4.8zM21.6 23.2h4.8v1.6h-4.8zM29.6 23.2h4.8v1.6h-4.8zM13.6 31.2h4.8v1.6h-4.8zM21.6 31.2h4.8v1.6h-4.8zM29.6 31.2h4.8v1.6h-4.8zM13.6 39.2h4.8v1.6h-4.8zM21.6 39.2h4.8v1.6h-4.8z"/><g><path fill="#E2771E" d="M29.6 39.2h4.8v1.6h-4.8z"/><path d="M46.5 42.3c1-.8 1.5-1.9 1.5-3.1 0-.8-.3-1.6-.8-2.3-.3-.4-.4-1-.2-1.5s.2-1.1.1-1.6c-.4-1.6-1.8-2.7-3.5-2.5-1.6.2-2.9 1.6-2.9 3.2 0 .3 0 .7.2 1 .2.5.1 1.1-.2 1.5-.8 1.1-1 2.5-.5 3.7.5 1.2 1.5 2.2 2.8 2.5h.1v3.3h-2.4V44c0-.4-.4-.8-.8-.8h-1.6V4c0-.4-.4-.8-.8-.8h-2.4V.8c0-.4-.4-.8-.8-.8H13.6c-.4 0-.8.4-.8.8v2.4h-2.4c-.4 0-.8.4-.8.8v39.2H8c-.4 0-.8.4-.8.8v2.4H4.8v-3.3c1.3-.3 2.4-1.2 2.9-2.4.5-1.3.3-2.7-.5-3.8-.3-.4-.4-1-.2-1.5s.2-1.1.1-1.6c-.4-1.6-1.8-2.7-3.5-2.5C2 31.5.7 32.9.7 34.5c0 .3 0 .7.2 1 .2.5.1 1.1-.2 1.5-.8 1.1-1 2.5-.5 3.7.5 1.2 1.5 2.2 2.8 2.5h.1v3.3H0V48h48v-1.6h-3.2v-3.3c.6-.1 1.2-.4 1.7-.8zm-43.3-.8c-.7-.2-1.3-.8-1.5-1.5-.2-.7-.1-1.5.3-2.1.6-.9.8-1.9.4-2.9 0-.2-.1-.3-.1-.5 0-.5.2-.9.6-1.2.3-.2.6-.4 1-.4h.3c.4.1.8.4 1.1.8.2.4.3.9.2 1.3-.3 1-.2 2.1.4 2.9.3.4.5.9.4 1.4 0 .7-.3 1.4-.9 1.9-.2.2-.4.3-.7.4v-3.8H3.2v3.7zm32-36.7h1.6v38.4h-1.6V4.8zM14.4 1.6h19.2v1.6H14.4V1.6zm16 36.8v-1.6h3.2v1.6h-3.2zm3.2 1.6v3.2h-3.2V40h3.2zm-3.2-4.8V32h3.2v3.2h-3.2zm0-4.8v-1.6h3.2v1.6h-3.2zm0-3.2V24h3.2v3.2h-3.2zm0-4.8v-1.6h3.2v1.6h-3.2zm0-3.2V16h3.2v3.2h-3.2zm0-4.8v-1.6h3.2v1.6h-3.2zm0-3.2V8h3.2v3.2h-3.2zm0-4.8V4.8h3.2v1.6h-3.2zm-1.6-1.6v38.4h-1.6V4.8h1.6zm-6.4 33.6v-1.6h3.2v1.6h-3.2zm3.2 1.6v3.2h-3.2V40h3.2zm-3.2-4.8V32h3.2v3.2h-3.2zm0-4.8v-1.6h3.2v1.6h-3.2zm0-3.2V24h3.2v3.2h-3.2zm0-4.8v-1.6h3.2v1.6h-3.2zm0-3.2V16h3.2v3.2h-3.2zm0-4.8v-1.6h3.2v1.6h-3.2zm0-3.2V8h3.2v3.2h-3.2zm0-4.8V4.8h3.2v1.6h-3.2zm-1.6-1.6v38.4h-1.6V4.8h1.6zm-6.4 0h3.2v1.6h-3.2V4.8zm0 3.2h3.2v3.2h-3.2V8zm0 4.8h3.2v1.6h-3.2v-1.6zm0 3.2h3.2v3.2h-3.2V16zm0 4.8h3.2v1.6h-3.2v-1.6zm0 3.2h3.2v3.2h-3.2V24zm0 4.8h3.2v1.6h-3.2v-1.6zm0 3.2h3.2v3.2h-3.2V32zm0 4.8h3.2v1.6h-3.2v-1.6zm0 3.2h3.2v3.2h-3.2V40zm-3.2-.8V4.8h1.6v38.4h-1.6v-4zm28 7.2H8.8v-1.6h30.4v1.6zm4-8.8v3.9c-.7-.2-1.3-.8-1.5-1.5-.2-.7-.1-1.5.3-2.1.6-.9.8-1.9.4-2.9 0-.2-.1-.3-.1-.5 0-.5.2-.9.6-1.2.3-.2.6-.4 1-.4h.3c.4.1.8.4 1.1.8.2.4.3.9.2 1.3-.3 1-.2 2.1.4 2.9.3.4.5.9.4 1.4 0 .7-.3 1.4-.9 1.9-.2.2-.4.3-.7.4v-3.8h-1.5zm0 0"/></g></svg>