<svg version="1.1" id="Layer_1" xmlns="http://www.w3.org/2000/svg" x="0" y="0" viewBox="0 0 48 48" xml:space="preserve"><path fill="#FFF" d="M26.7 47.3h-5.3c-2.4 0-4.4-2-4.4-4.4v-8h14.2v8c-.1 2.4-2.1 4.4-4.5 4.4z"/><path fill="#EAEAEA" d="M19.7 42.8v-8h-2.8v8c0 2.4 2 4.4 4.4 4.4h2.8c-2.5.1-4.4-1.9-4.4-4.4z"/><path fill="#FF8F26" d="M24 9.6c-6.4 0-11.6 5.2-11.6 11.6 0 4.7 2.8 8.8 6.9 10.6v3.4h9.5v-3.4c4.1-1.8 6.9-5.9 6.9-10.6-.1-6.4-5.3-11.6-11.7-11.6z"/><path fill="#E2771E" d="M15.1 21.2c0-6 4.5-10.9 10.3-11.5-.5-.1-.9-.1-1.4-.1-6.4 0-11.6 5.2-11.6 11.6 0 4.7 2.8 8.8 6.9 10.6v3.4H22v-3.4c-4-1.7-6.9-5.8-6.9-10.6z"/><circle fill="#FEE7BE" cx="27.4" cy="14.7" r="2.8"/><path d="M24 8.9c-2.6 0-5 .8-7.1 2.3-.3.2-.4.7-.2 1 .2.3.7.4 1 .2 1.8-1.3 4-2 6.3-2 6 0 10.9 4.9 10.9 10.9 0 4.3-2.5 8.2-6.5 10-.3.1-.4.4-.4.7v2.2h-.9v-10h1.3c.9 0 1.7-.6 2.1-1.4.3-.9.1-1.8-.6-2.4l-.6-.5c-.7-.6-1.6-.7-2.4-.4-.8.4-1.3 1.1-1.3 2v1.3h-3.3v-1.3c0-.9-.5-1.7-1.3-2-.8-.4-1.7-.2-2.4.4l-.6.5c-.7.6-.9 1.6-.6 2.4.3.9 1.1 1.4 2.1 1.4h1.3v10H20V32c0-.3-.2-.6-.4-.7-3.9-1.7-6.5-5.7-6.5-10 0-2.5.8-4.9 2.4-6.8.3-.3.2-.8-.1-1-.3-.3-.8-.2-1 .1-1.8 2.2-2.7 4.9-2.7 7.8 0 4.7 2.7 9 6.9 11.1v1.8H17c-.4 0-.7.3-.7.7v8c0 2.9 2.3 5.2 5.2 5.2h5.3c2.9 0 5.2-2.3 5.2-5.2v-2.1c0-.4-.3-.7-.7-.7-.4 0-.7.3-.7.7v1.3h-13v-2.6h10.7c.4 0 .7-.3.7-.7 0-.4-.3-.7-.7-.7H17.6v-2.5h12.7v1.2c0 .4.3.7.7.7.4 0 .7-.3.7-.7v-2c0-.4-.3-.7-.7-.7h-1.6v-1.8c4.2-2.1 6.9-6.4 6.9-11.1.1-6.9-5.5-12.4-12.3-12.4zm3.1 12.4c0-.4.3-.6.4-.7.1 0 .5-.2.8.1l.6.5c.4.3.2.7.2.8 0 .1-.2.5-.7.5h-1.3v-1.2zm-.4 25.2h-5.3c-1.8 0-3.3-1.3-3.6-3h12.6c-.5 1.7-2 3-3.7 3zm-7.1-23.9c-.7 0-1-.8-.5-1.3l.6-.5c.5-.4 1.2-.1 1.2.5v1.3h-1.3zm2.8 1.5h3.3v10h-3.3v-10zM24 5.6c.4 0 .7-.3.7-.7V.7c0-.4-.3-.7-.7-.7s-.7.3-.7.7v4.1c0 .5.3.8.7.8zM15.1 7.5c.2.4.7.5 1.1.2.3-.2.4-.6.2-1l-2.1-3.6c-.2-.4-.7-.5-1-.3-.4.2-.5.7-.3 1l2.1 3.7zM10 12.5l-3.6-2.1c-.4-.2-.8-.1-1 .3-.2.4-.1.8.3 1l3.6 2.1c.4.2.9.1 1-.3.2-.4.1-.8-.3-1zM8.2 21.4c0-.4-.3-.7-.7-.7H3.3c-.4 0-.7.3-.7.7 0 .4.3.7.7.7h4.1c.4.1.8-.3.8-.7zM9.3 29.1l-3.6 2.1c-.3.2-.5.6-.3.9.2.4.7.6 1 .3l3.6-2.1c.4-.2.5-.7.3-1-.2-.3-.7-.4-1-.2zM42.3 31.1L38.7 29c-.4-.2-.8-.1-1 .3-.2.4-.1.8.3 1l3.6 2.1c.4.2.9.1 1-.3.2-.4 0-.8-.3-1zM44.7 20.7h-4.1c-.4 0-.7.3-.7.7 0 .4.3.7.7.7h4.1c.4 0 .7-.3.7-.7 0-.4-.3-.7-.7-.7zM38.3 13.9c.1 0 .3 0 .4-.1l3.6-2.1c.4-.2.5-.7.3-1-.2-.4-.7-.5-1-.3L38 12.5c-.4.2-.5.7-.3 1 .1.3.4.4.6.4zM31.9 7.7c.3.2.8.1 1-.3L35 3.9c.2-.4.1-.8-.3-1-.4-.2-.8-.1-1 .3l-2.1 3.6c-.2.3 0 .7.3.9z"/></svg>