<svg version="1.1" id="Layer_1" xmlns="http://www.w3.org/2000/svg" x="0" y="0" viewBox="0 0 48 48" xml:space="preserve"><path fill="#FFF" d="M.8 9.7h46.5v35.9H.8z"/><path fill="#FF8F26" d="M6.5 15.1h23.6V28h-13s.1-5.6-6.6-6.4V28h-4V15.1z"/><g fill="#FF8F26"><path d="M41 2.4h3.3v10.2H41zM3.8 2.4h3.3v10.2H3.8z"/></g><g fill="#E2771E"><path d="M41 7.8h3.3v4.9H41zM3.8 7.8h3.3v4.9H3.8z"/></g><path d="M8.9 44.8H1.5V10.4H3v2.2c0 .4.3.8.8.8H7c.4 0 .8-.3.8-.8v-2.2h26.4c.4 0 .8-.3.8-.8s-.3-.8-.8-.8H7.8V2.4c0-.4-.3-.7-.8-.7H3.8c-.5 0-.8.3-.8.7v6.5H.8c-.5 0-.8.4-.8.8v35.9c0 .4.3.8.8.8H9c.4 0 .8-.3.8-.8s-.5-.8-.9-.8zM4.5 3.2h1.7v8.7H4.5V3.2zM47.2 8.9H45V2.4c0-.4-.3-.8-.8-.8H41c-.4 0-.8.3-.8.8v6.5h-2.8c-.4 0-.8.3-.8.8 0 .4.3.8.8.8h2.8v2.2c0 .4.3.8.8.8h3.3c.4 0 .8-.3.8-.8v-2.2h1.5v34.3H13c-.4 0-.8.3-.8.8s.3.8.8.8h34.2c.4 0 .8-.3.8-.8V9.7c0-.4-.3-.8-.8-.8zm-3.7 3h-1.7V3.2h1.7v8.7z"/><path d="M41.5 25c.4 0 .8-.3.8-.8v-9.1c0-.4-.3-.8-.8-.8h-35c-.4 0-.8.3-.8.8v26.1c0 .5.3.8.8.8h35.1c.4 0 .8-.3.8-.8V30.6c0-.4-.3-.8-.8-.8H36c.4-2.7 2.7-4.8 5.5-4.8zm-1.7-8.9h.9v.9h-.9v-.9zM23 37.9c0 .4.3.8.8.8h5.6v1.8H9.7v-1.8c0-.4-.3-.8-.8-.8H7.2v-9.3h3.3c.4 0 .8-.3.8-.8v-.1V22.3c2.7.4 4.8 2.7 4.8 5.5 0 .4.3.8.8.8h12.5v2.2c-3.6.5-6.4 3.5-6.4 7.1zM7.2 39.5h.9v.9h-.9v-.9zm22.2-12.3H17.6c-.4-3.5-3.4-6.3-7-6.3-.4 0-.8.3-.8.8v5.6H7.2v-8.7h1.7c.4 0 .8-.3.8-.8V16h19.7v11.2zM7.2 16.1h.9v.9h-.9v-.9zm33.6 24.3h-.9v-.9h.9v.9zm-6.4-9.8c0 .4.3.8.8.8h5.6V38h-1.7c-.4 0-.8.3-.8.8v1.8h-7.4V38c0-.4-.3-.8-.8-.8h-5.5c.4-2.7 2.7-4.8 5.5-4.8.4 0 .8-.3.8-.8V15.9h7.4v1.8c0 .4.3.8.8.8h1.7v5c-3.6.4-6.4 3.4-6.4 7.1z"/></svg>