<svg version="1.1" id="Layer_1" xmlns="http://www.w3.org/2000/svg" x="0" y="0" viewBox="0 0 48 48" xml:space="preserve"><path fill="#FFF" d="M3.6 43h40.9v4.2H3.6z"/><path fill="#EAEAEA" d="M3.6 45.7h40.9v1.5H3.6zM24 .8c-9.5 0-17.2 7.6-17.2 17V43h34.5V17.8C41.2 8.4 33.5.8 24 .8z"/><path fill="#FFF" d="M8.3 41.5V17.8c0-8.6 7-15.5 15.7-15.5s15.7 7 15.7 15.5v23.7H8.3z"/><path fill="#FF8F26" d="M24 3C15.7 3 9 9.6 9 17.8c0 .4.3.8.8.8h28.5c.4 0 .8-.3.8-.8C39 9.6 32.3 3 24 3z"/><g fill="#FFF"><path d="M37.5 11.5l-7 7.1h7.7c.4 0 .8-.3.8-.8 0-2.3-.5-4.4-1.5-6.3zM16.7 18.5h6.4L34.4 7.2c-1.1-1.1-2.4-2-3.8-2.7l-13.9 14z"/></g><path fill="#FF8F26" d="M38.2 20.2H26c-.4 0-.8.3-.8.8v19c0 .4.3.8.8.8h12.2c.4 0 .8-.3.8-.8V21c0-.4-.4-.8-.8-.8z"/><path fill="#FFF" d="M25.3 39.8L39 26.1v-3.6L25.3 36.3z"/><path fill="#FF8F26" d="M22 20.2H9.8c-.4 0-.8.3-.8.8v19c0 .4.3.8.8.8H22c.4 0 .8-.3.8-.8V21c0-.4-.3-.8-.8-.8z"/><path fill="#FFF" d="M9.1 39.8l13.7-13.7v-3.6L9.1 36.3z"/><path d="M44.4 42.3H42V17.8C42 8 33.9 0 24 0c-3.8 0-7.4 1.1-10.5 3.3-.3.2-.4.7-.2 1 .2.3.7.4 1 .2 2.8-2 6.1-3 9.6-3 9.1 0 16.5 7.3 16.5 16.3v24.5h-33V17.8c0-4.1 1.6-8.1 4.4-11.1.3-.3.3-.8 0-1.1-.3-.3-.8-.3-1.1 0C7.7 9 6 13.3 6 17.8v24.5H3.6c-.4 0-.8.3-.8.8v4.2c0 .4.3.8.8.8h31.3c.4 0 .8-.3.8-.8 0-.4-.3-.8-.8-.8H4.3v-2.7h39.4v2.7h-4.9c-.4 0-.8.3-.8.8 0 .4.3.8.8.8h5.6c.4 0 .8-.3.8-.8V43c0-.4-.3-.7-.8-.7z"/><path d="M24 3C15.7 3 9 9.6 9 17.8c0 .4.3.8.8.8h28.5c.4 0 .8-.3.8-.8C39 9.6 32.3 3 24 3zM10.5 17c.4-7 6.3-12.5 13.5-12.5S37.1 10.1 37.5 17h-27zM38.2 20.2H26c-.4 0-.8.3-.8.8v19c0 .4.3.8.8.8h12.2c.4 0 .8-.3.8-.8V21c0-.4-.4-.8-.8-.8zm-.7 19.1H26.8V21.7h10.7v17.6zM9.8 20.2c-.4 0-.8.4-.8.8v19c0 .4.3.8.8.8H22c.4 0 .8-.3.8-.8V21c0-.4-.3-.8-.8-.8H9.8zm11.4 19.1H10.5V21.7h10.7v17.6z"/></svg>