<svg version="1.1" id="Layer_1" xmlns="http://www.w3.org/2000/svg" x="0" y="0" viewBox="0 0 48 48" xml:space="preserve"><path fill="#FFF" d="M44.3 24.4h-3v-6.7c0-2.5-2-4.5-4.5-4.5h-6c-.8 0-1.5.7-1.5 1.5v14.8H5.1v5.6H47.2v-7.8c.1-1.6-1.3-2.9-2.9-2.9z"/><path fill="#EAEAEA" d="M5.1 33v2.1h42.2V33zM36.8 15.7h-5.1v8.7h7.2v-6.7c0-1.1-.9-2-2.1-2z"/><circle fill="#EAEAEA" cx="40.3" cy="36.5" r="5"/><circle fill="#E5E5E5" cx="40.3" cy="36.5" r="2.6"/><circle fill="#EAEAEA" cx="24.4" cy="36.5" r="5"/><circle fill="#E5E5E5" cx="24.4" cy="36.5" r="2.6"/><circle fill="#EAEAEA" cx="12.5" cy="36.5" r="5"/><circle fill="#E5E5E5" cx="12.5" cy="36.5" r="2.6"/><path fill="#FF8F26" d="M22.4 27.2H5.1L2.5 9.3h26.1z"/><path fill="#E2771E" d="M28.6 9.3H2.5l.5 2.9h24.6z"/><path fill="#FF8F26" d="M.7 6.5h31v4H.7z"/><path fill="#E2771E" d="M.7 6.5h7.5v4H.7z"/><path fill="#FFF" d="M22.6 6.5h4.7v4h-4.7z"/><g fill="#E2771E"><path d="M7.1 12.7h2.8V25H7.1zM12.9 12.7h2.8V25h-2.8zM20.2 25h-2l1.4-12.3h3.2z"/></g><path d="M44.3 23.7H42v-5.9c0-2.9-2.3-5.2-5.2-5.2h-6c-1.2 0-2.2 1-2.2 2.2v14.1H16.2c-.4 0-.7.3-.7.7 0 .4.3.7.7.7h13.1c.4 0 .7-.3.7-.7V14.8c0-.4.3-.7.7-.7h6c2.1 0 3.7 1.7 3.7 3.7v6.7c0 .4.3.7.7.7h3c1.2 0 2.2 1 2.2 2.2v7h-.9c-.8-2.1-2.9-3.6-5.3-3.6s-4.5 1.5-5.3 3.6h-5.3c-.8-2.1-2.9-3.6-5.3-3.6s-4.5 1.5-5.3 3.6h-1.3c-.8-2.1-2.9-3.6-5.3-3.6S8 32.3 7.2 34.4H5.9v-4.1h6.4c.4 0 .7-.3.7-.7 0-.4-.3-.7-.7-.7H5.1c-.4 0-.7.3-.7.7v5.6c0 .4.3.7.7.7h1.7v.6c0 3.2 2.6 5.7 5.7 5.7s5.7-2.6 5.7-5.7v-.6h.6v.6c0 3.2 2.6 5.7 5.7 5.7s5.7-2.6 5.7-5.7v-.6h4.5v.6c0 3.2 2.6 5.7 5.7 5.7s5.7-2.6 5.7-5.7v-.6h1.3c.4 0 .7-.3.7-.7v-7.8c-.1-2.1-1.8-3.7-3.8-3.7zm-31.8 17c-2.3 0-4.2-1.9-4.2-4.2 0-2.3 1.9-4.2 4.2-4.2s4.2 1.9 4.2 4.2c0 2.4-1.9 4.2-4.2 4.2zm11.9 0c-2.3 0-4.2-1.9-4.2-4.2 0-2.3 1.9-4.2 4.2-4.2s4.2 1.9 4.2 4.2c0 2.4-1.9 4.2-4.2 4.2zm15.9 0c-2.3 0-4.2-1.9-4.2-4.2 0-2.3 1.9-4.2 4.2-4.2 2.3 0 4.2 1.9 4.2 4.2 0 2.4-1.9 4.2-4.2 4.2z"/><path d="M31.8 25.1H39c.4 0 .7-.3.7-.7v-6.7c0-1.6-1.3-2.8-2.8-2.8h-5.1c-.4 0-.7.3-.7.7v8.7c-.1.5.2.8.7.8zm.7-8.7h4.3c.7 0 1.3.6 1.3 1.3v5.9h-5.7v-7.2zM31.8 27.3h2.4c.4 0 .7-.3.7-.7s-.3-.7-.7-.7h-2.4c-.4 0-.7.3-.7.7s.2.7.7.7zM40.3 33.2c-1.8 0-3.3 1.5-3.3 3.3 0 1.8 1.5 3.3 3.3 3.3 1.8 0 3.3-1.5 3.3-3.3 0-1.8-1.5-3.3-3.3-3.3zm0 5.2c-1 0-1.8-.8-1.8-1.8s.8-1.8 1.8-1.8 1.8.8 1.8 1.8-.8 1.8-1.8 1.8zM24.4 33.2c-1.8 0-3.3 1.5-3.3 3.3 0 1.8 1.5 3.3 3.3 3.3 1.8 0 3.3-1.5 3.3-3.3 0-1.8-1.5-3.3-3.3-3.3zm0 5.2c-1 0-1.8-.8-1.8-1.8s.8-1.8 1.8-1.8 1.8.8 1.8 1.8-.8 1.8-1.8 1.8zM12.5 33.2c-1.8 0-3.3 1.5-3.3 3.3 0 1.8 1.5 3.3 3.3 3.3s3.3-1.5 3.3-3.3c0-1.8-1.5-3.3-3.3-3.3zm0 5.2c-1 0-1.8-.8-1.8-1.8s.8-1.8 1.8-1.8 1.8.8 1.8 1.8-.8 1.8-1.8 1.8zM4.4 27.3c.1.4.4.6.7.6h17.3c.3 0 .6-.2.7-.5l5.6-16.2h3.1c.4 0 .7-.3.7-.7v-4c0-.4-.3-.7-.7-.7H29c-.4 0-.7.3-.7.7s.3.7.7.7h2v2.5H1.5V7.3H25c.4 0 .7-.3.7-.7s-.3-.8-.7-.8H.7c-.4 0-.7.3-.7.7v4c0 .4.3.7.7.7H2l2.4 16.1zm17.5-.9H5.8L3.6 11.2h23.5l-5.2 15.2z"/></svg>