<svg enable-background="new 0 0 215.8 26.9" viewBox="0 0 215.8 26.9" xmlns="http://www.w3.org/2000/svg"><path d="m22.4 11c0-.6-.3-1.1-.9-1.3-.7-.2-1.4-.5-2.1-.8-.3-.1-.5-.1-.8-.1-3.5.8-7 1.6-10.5 2.4-.6.1-.9.5-.9 1.2v2.1c0 .7.3 1 1.1.8 2.5-.4 5.1-.8 7.6-1.3 2-.4 3.9-.6 5.7.3.5.2.7-.1.8-.5 0-.5 0-1 0-1.5 0-.4 0-.9 0-1.3zm-.6 10.9c-1-.1-2-.3-3-.3-3.5.2-7.1.4-10.6.6-.7 0-1 .4-1 1.1v1.9c0 .8.3 1.1 1.1 1.1h6.5 6.7c.5 0 .7-.2.8-.6.1-1.1.1-2.2 0-3.2 0-.3-.1-.5-.5-.6zm-7.6-13.6c1.5-.4 2.9-.7 4.4-1.1.3-.1.6 0 .8.1 1.8.8 3.7 1.6 5.5 2.4.7.3.9.2.9-.5s0-1.5 0-2.2c0-.5-.2-1-.7-1.3-1.9-1-3.8-2-5.7-3.1-.3-.1-.5-.2-.8-.1-1.1.4-2.3.7-3.4 1.1-.5.2-.9.3-1.2.4-.9.4-.9.8-.9 2.4v1.1c0 .7.3 1 1.1.8zm2 7.3c-.3.1-.6.1-.9.1-2.2.3-2.2.3-2.2 2.5v1.2c0 .7.3 1 1.1.9.3 0 .7-.1 1-.1 1.4-.1 2.8-.4 4.2-.2 1.8.2 3.7.5 5.5.8.7.1.9 0 .9-.7 0-.8 0-1.6 0-2.4 0-.6-.3-.9-.9-1-1-.2-2-.4-2.9-.7-1.9-.7-3.8-.9-5.8-.4zm-14.8 5.8c2.9-.2 5.8-.5 8.7-.7 1.7-.1 1.8-.2 1.8-1.9 0-.1 0-.3 0-.4 0-.4 0-.9 0-1.3 0-.5-.3-.8-.9-.7-3.3.5-6.6 1-10 1.5-.6.1-.9.4-.9 1v1.4c-.1 1 .1 1.2 1.3 1.1zm-.2-9.9c2.8-.7 5.7-1.5 8.5-2.1.8-.2 1.2-.3 1.6-.5.5-.3.5-.8.5-2.1 0-.4 0-.8 0-1.2 0-.7-.3-.9-.9-.7-3.3 1-6.6 2.1-10 3.1-.6.2-.9.6-.9 1.2v1.4c0 1 .3 1.2 1.2.9zm28.1 1.3c-1.8-.7-3.6-1.4-5.5-2.2-.5-.2-.6 0-.7.4v1.5 1.4c0 .4.2.8.7.9 1.8.5 3.6 1 5.3 1.5.5.2.7-.1.7-.5 0-.7 0-1.5 0-2.2.2-.3 0-.6-.5-.8zm-.1 9.9c-1.7-.2-3.5-.3-5.2-.6-.6-.1-.8.2-.8.6v2.9c0 .5.2.7.8.7h2.6 2.7c.5 0 .7-.2.7-.6 0-.8 0-1.5 0-2.3 0-.4-.3-.6-.8-.7zm-24.3-10.7c-1.3.3-2.6.6-3.9.9-.7.1-1 .5-1 1.1v1.7c0 .7.3.9 1 .8 1-.2 2-.3 3-.5 1.2-.2 1.6-.3 1.8-.8.1-.3.1-.7.1-1.5 0-.3 0-.7 0-1 0-.6-.3-.9-1-.7zm.1 10.5c-1.3.1-2.7.2-4 .2-.6 0-.9.4-.9 1v1.7c0 .6.3.9.9.9h2 2c.6 0 1-.3 1-.9 0-.7 0-1.4 0-2.1-.1-.5-.4-.8-1-.8zm24.2-4.8c-.6-.1-1.3-.3-1.9-.5-.5-.1-.7.1-.7.5v1.3 1.3c0 .5.3.7.8.8l1.8.3c.5.1.7-.1.8-.6 0-.8 0-1.5 0-2.3-.1-.4-.3-.7-.8-.8zm.8-8.4c0-.7-.3-1.3-1-1.6-.6-.2-1.1-.6-1.7-.9-.5-.3-.7-.2-.7.3-.1.9-.1 1.7 0 2.6 0 .4.2.7.6.9.7.3 1.4.6 2.1.9.5.2.6 0 .7-.4 0-.4 0-.7 0-1.1 0-.2 0-.4 0-.7z" fill="#ff8f26"/><path d="m57.5 8.4h-6.9l-4.6 7.5v-14.7h-6v25.2h6v-7.7l5.1 7.7h6.7l-6.3-9zm8.7-.5c-2.7 0-4.9.9-6.8 2.8-1.9 1.8-2.8 4.1-2.8 6.8s.9 4.9 2.8 6.8c1.9 1.8 4.1 2.8 6.8 2.8s5-.9 6.8-2.8c1.9-1.8 2.8-4.1 2.8-6.8s-.9-4.9-2.8-6.8c-1.8-1.9-4.1-2.8-6.8-2.8zm2.6 12.2c-.7.7-1.6 1-2.6 1s-1.9-.3-2.6-1-1-1.6-1-2.7.3-2 1-2.7 1.5-1 2.6-1 1.9.3 2.6 1 1 1.6 1 2.7c.1 1.1-.3 2-1 2.7zm19.7-12.2c-2.3 0-3.9.8-5 2.3v-1.8h-6v18h6v-9.6c0-1.1.3-1.9.8-2.4.5-.6 1.2-.8 2.2-.8.8 0 1.5.2 2 .7s.7 1.2.7 2.1v10h6v-10.8c0-2.5-.6-4.4-1.9-5.7-1.2-1.4-2.8-2-4.8-2zm32-4.6-6 1.8v3.2h-2.7v3.5c-1.4-2.7-3.8-4.1-7.3-4.1-2 0-3.7.5-5.1 1.6s-2.1 2.5-2.1 4.5c0 1.2.3 2.2.9 3s1.3 1.4 2.2 1.7 1.7.6 2.6.9c.8.3 1.5.5 2.2.7.6.2.9.5.9.8 0 .6-.5 1-1.6 1-1.4 0-2.4-.7-2.8-2l-5.2 2.6c1.3 2.9 4 4.3 8.1 4.3 2.1 0 4-.5 5.5-1.5s2.3-2.5 2.3-4.6c0-1.3-.3-2.4-.9-3.3s-1.4-1.4-2.3-1.7-1.8-.6-2.6-.8c-.8-.3-1.6-.5-2.2-.7s-.9-.5-.9-.8c0-.5.4-.8 1.3-.8 1 0 1.7.5 2.2 1.5l5-2.2v2h2.7v5.4c0 2.9.7 4.8 2.2 5.9s4 1.4 7.5 1v-5.2c-1.3.1-2.3 0-2.9-.2s-.9-.7-.9-1.5v-5.2h3.7v-5.7h-3.7v-5.1zm11.8 8.4v-3.3h-6v18h6v-7.5c0-1.6.6-2.8 1.7-3.5s2.4-1 3.7-.8v-6.6c-1.2 0-2.4.3-3.4 1-1 .6-1.6 1.5-2 2.7zm18.2 6.2c0 1.1-.3 1.9-.8 2.4-.5.6-1.2.8-2.2.8-.8 0-1.5-.2-2-.7s-.7-1.2-.7-2.1v-10h-6v10.8c0 2.5.6 4.4 1.9 5.7 1.2 1.3 2.8 2 4.8 2 2.3 0 3.9-.8 5-2.3v1.8h6v-18h-6zm34.2-14.6-6 1.8v3.2h-9.1l-4.6 7.5v-14.6h-6v25.2h6v-7.7l5.1 7.7h6.7l-6.3-9 5.5-8.2v4.9h2.7v5.4c0 2.9.7 4.8 2.2 5.9s4 1.4 7.5 1v-5.4c-1.3.1-2.3 0-2.9-.2s-.9-.7-.9-1.5v-5.2h3.7v-5.7h-3.7v-5.1zm8.7-3.3c-.9 0-1.7.3-2.4 1s-1 1.5-1 2.4.3 1.7 1 2.4 1.5 1 2.4 1 1.7-.3 2.4-1 1-1.5 1-2.4-.3-1.7-1-2.4-1.5-1-2.4-1zm-3 26.4h6v-18h-6zm17.1-5.4c-1 0-1.8-.3-2.5-1s-1-1.6-1-2.6c0-1.1.3-2 1-2.6.7-.7 1.5-1 2.5-1 1.4 0 2.5.6 3.1 1.8l5.1-3c-.8-1.4-1.9-2.5-3.4-3.4-1.5-.8-3.1-1.3-4.8-1.3-2.7 0-5 .9-6.8 2.7s-2.7 4.1-2.7 6.8.9 4.9 2.7 6.8c1.8 1.8 4.1 2.7 6.8 2.7 1.8 0 3.4-.4 4.8-1.3 1.5-.8 2.6-2 3.4-3.4l-5.1-3c-.5 1.2-1.6 1.8-3.1 1.8z" fill="#fff"/></svg>
